<svg width="198" height="197" viewBox="0 0 198 197" fill="none" xmlns="http://www.w3.org/2000/svg">
<g clip-path="url(#clip0_1496_112)">
<mask id="mask0_1496_112" style="mask-type:luminance" maskUnits="userSpaceOnUse" x="0" y="0" width="198" height="197">
<path d="M197.11 0H0.5V196.63H197.11V0Z" fill="white"/>
</mask>
<g mask="url(#mask0_1496_112)">
<path d="M154.03 52.5792C154.03 48.8392 152.55 47.699 148.98 47.709C115.493 47.789 82.0033 47.789 48.5099 47.709C44.9799 47.709 43.3699 48.7792 43.3799 52.5392C43.4666 83.2057 43.4666 113.872 43.3799 144.539C43.3799 147.759 44.6999 149.039 47.8499 149.019C51.1599 149.019 52.1399 147.319 52.0399 144.279C51.9099 140.139 52.0399 135.999 52.0399 131.849L53.4799 131.739C53.4799 135.669 53.5599 139.589 53.4799 143.509C53.3899 147.079 54.3899 148.809 58.4799 147.809C66.0699 145.939 68.7299 144.289 76.4099 142.809C79.8399 142.139 81.0599 140.509 81.0399 137.039C80.9266 114.552 80.9266 92.0625 81.0399 69.569C81.0399 65.759 79.4599 64.3291 75.9199 63.6791C69.2099 62.4391 67.5799 60.799 60.9199 59.319C53.6299 57.699 53.6499 57.6992 53.4799 64.9692C53.4799 66.1592 53.8999 67.529 52.6599 68.669C51.6599 66.769 52.1199 64.929 52.0999 63.169C52.0399 56.369 52.0999 56.3591 58.9799 56.3591H114.4C123.23 56.3591 132.06 56.3591 140.89 56.3591C142.89 56.3591 145.19 56.1592 145.31 59.0792C145.43 62.2292 145.31 65.3892 145.31 68.5492C143.52 67.1192 143.93 65.5492 143.89 64.1492C143.74 58.0392 143.51 57.789 137.6 59.049C130.43 60.579 129.33 62.3892 122.13 63.7192C118.36 64.4192 117.31 66.309 117.33 69.879C117.43 92.2057 117.43 114.539 117.33 136.879C117.33 140.639 118.75 142.219 122.33 142.879C129.85 144.319 131.33 145.879 138.78 147.749C142.65 148.749 144.04 147.459 143.93 143.659C143.82 139.659 143.93 135.659 143.93 131.659H145.46C145.46 135.759 145.56 139.859 145.46 143.949C145.35 147.219 146.46 148.949 149.99 148.949C153.36 148.879 154.08 147.009 154.08 144.069C153.987 113.569 153.97 83.0725 154.03 52.5792ZM73.5799 93.919H76.7599V110.059H73.5799V93.919ZM124.29 110.059H121.11V93.919H124.29V110.059Z" fill="#EAB308"/>
<path d="M103.58 154.6H102.2C99.9704 153.75 99.4804 153.01 99.4304 150.6C99.3104 143.68 99.1871 136.764 99.0604 129.85C99.0604 129.65 99.0604 129.46 99.0604 129.28C98.1404 128.96 98.1504 129.51 98.1404 130.13C98.0204 137.01 97.8504 143.9 97.7904 150.78C97.8724 151.63 97.6541 152.481 97.1737 153.186C96.6932 153.891 95.9809 154.406 95.1604 154.64H93.7304C91.6104 153.83 91.0704 152.98 91.2504 150.69C91.2504 150.23 91.3204 149.77 91.3204 149.31L91.6204 111.52C91.607 111.322 91.5836 111.126 91.5504 110.93C91.2144 111.432 90.9643 111.986 90.8104 112.57C90.0571 115.361 89.8333 118.267 90.1504 121.14C90.3204 122.75 89.6704 123.75 88.3304 124.07C87.8973 124.181 87.4453 124.196 87.0059 124.114C86.5665 124.032 86.1501 123.856 85.7857 123.597C85.4212 123.338 85.1175 123.003 84.8956 122.615C84.6736 122.227 84.5388 121.795 84.5004 121.35C84.0905 117.456 84.5586 113.52 85.8704 109.83C87.7004 105.05 90.7704 101.65 96.1104 100.83C100.35 100.23 104.3 100.83 107.6 103.83C109.858 105.916 111.404 108.659 112.02 111.67C112.54 113.99 112.71 116.39 113.02 118.75V119C112.96 119.78 112.9 120.56 112.83 121.34C112.794 121.758 112.672 122.164 112.474 122.534C112.275 122.903 112.003 123.228 111.675 123.489C111.347 123.75 110.968 123.942 110.564 124.052C110.159 124.162 109.736 124.189 109.32 124.13C107.72 123.97 107.06 122.84 107.15 120.91C107.241 119.016 107.2 117.119 107.03 115.23C106.893 113.358 106.314 111.545 105.34 109.94V111.17C105.414 115.17 105.48 119.2 105.54 123.26C105.674 132.467 105.807 141.677 105.94 150.89C105.98 153.06 105.57 153.73 103.58 154.6Z" fill="#EAB308"/>
<path d="M99.4402 86.6602C100.522 86.8683 101.524 87.3747 102.333 88.1221C103.143 88.8695 103.727 89.8283 104.02 90.8902C104.318 91.9774 104.286 93.1287 103.928 94.1976C103.569 95.2664 102.901 96.2045 102.008 96.8923C101.114 97.58 100.037 97.9865 98.9118 98.0598C97.7868 98.1331 96.6655 97.87 95.6905 97.304C94.7156 96.738 93.9311 95.8947 93.437 94.8814C92.9429 93.8681 92.7614 92.7307 92.9158 91.614C93.0702 90.4973 93.5534 89.4517 94.3039 88.6105C95.0544 87.7693 96.0383 87.1704 97.1302 86.8902C97.3102 86.8902 97.4902 86.7601 97.6702 86.7001L99.4402 86.6602Z" fill="#EAB308"/>
<path d="M182.11 98.3502C181.85 132.82 160.2 164.93 127.46 176.69C111.136 182.512 93.4167 183.176 76.7029 178.592C59.9892 174.007 45.0885 164.396 34.0195 151.06C11.7695 124.33 9.42954 84.9102 27.2495 55.3102C45.0695 25.7102 80.5795 9.67022 114.5 16.4202C133.448 20.2633 150.5 30.4991 162.803 45.4139C175.105 60.3287 181.911 79.017 182.08 98.3502C182.15 108 197.15 108.02 197.08 98.3502C196.911 78.1478 190.603 58.4742 178.995 41.9395C167.386 25.4048 151.024 12.7905 132.08 5.77022C93.5695 -8.37978 48.3295 4.16022 22.5795 36.0002C-3.33046 68.1302 -7.03046 114.12 14.6295 149.52C36.1895 184.74 78.1095 202.77 118.5 194.74C163.96 185.74 196.74 144.29 197.09 98.3502C197.18 88.7002 182.18 88.6902 182.11 98.3502Z" fill="#DC2626"/>
<path d="M29.1198 39.3694L72.5499 82.7994L141.78 151.999L157.68 167.899C164.51 174.739 175.12 164.129 168.29 157.299L124.86 113.899L55.6299 44.6694L39.7298 28.7694C32.8898 21.9294 22.2798 32.5394 29.1198 39.3694Z" fill="#DC2626"/>
</g>
</g>
<defs>
<clipPath id="clip0_1496_112">
<rect width="198" height="197" fill="white"/>
</clipPath>
</defs>
</svg>
